<mxfile host="app.diagrams.net" modified="2023-09-28T17:07:20.905Z" agent="Mozilla/5.0 (X11; Linux x86_64; rv:109.0) Gecko/20100101 Firefox/115.0" etag="WU_tCq2DyQfvy5QDplG1" version="21.7.5" type="device">
  <diagram name="Page-1" id="HYTT2uvrNVQLuCZIVweO">
    <mxGraphModel dx="673" dy="419" grid="1" gridSize="10" guides="1" tooltips="1" connect="1" arrows="1" fold="1" page="1" pageScale="1" pageWidth="1200" pageHeight="1920" math="1" shadow="0">
      <root>
        <mxCell id="0" />
        <mxCell id="1" parent="0" />
        <mxCell id="Xr_a90Z806RpOpPXDUMy-2" value="&lt;div&gt;relu&lt;/div&gt;" style="ellipse;whiteSpace=wrap;html=1;" vertex="1" parent="1">
          <mxGeometry x="480" y="340" width="40" height="40" as="geometry" />
        </mxCell>
        <mxCell id="Xr_a90Z806RpOpPXDUMy-3" value="" style="endArrow=classic;html=1;rounded=0;entryX=0;entryY=0.5;entryDx=0;entryDy=0;exitX=1;exitY=0.5;exitDx=0;exitDy=0;" edge="1" parent="1">
          <mxGeometry width="50" height="50" relative="1" as="geometry">
            <mxPoint x="400" y="355" as="sourcePoint" />
            <mxPoint x="480" y="355" as="targetPoint" />
          </mxGeometry>
        </mxCell>
        <mxCell id="Xr_a90Z806RpOpPXDUMy-6" value="" style="endArrow=classic;html=1;rounded=0;entryX=0;entryY=0.5;entryDx=0;entryDy=0;exitX=1;exitY=0.5;exitDx=0;exitDy=0;" edge="1" parent="1">
          <mxGeometry width="50" height="50" relative="1" as="geometry">
            <mxPoint x="520" y="355" as="sourcePoint" />
            <mxPoint x="600" y="355" as="targetPoint" />
          </mxGeometry>
        </mxCell>
        <mxCell id="Xr_a90Z806RpOpPXDUMy-7" value="&lt;div&gt;`x`&lt;/div&gt;" style="text;html=1;strokeColor=none;fillColor=none;align=center;verticalAlign=middle;whiteSpace=wrap;rounded=0;" vertex="1" parent="1">
          <mxGeometry x="410" y="330" width="60" height="30" as="geometry" />
        </mxCell>
        <mxCell id="Xr_a90Z806RpOpPXDUMy-8" value="&lt;div&gt;`y`&lt;/div&gt;" style="text;html=1;strokeColor=none;fillColor=none;align=center;verticalAlign=middle;whiteSpace=wrap;rounded=0;" vertex="1" parent="1">
          <mxGeometry x="530" y="330" width="60" height="30" as="geometry" />
        </mxCell>
        <mxCell id="Xr_a90Z806RpOpPXDUMy-12" value="" style="endArrow=classic;html=1;rounded=0;exitX=-0.033;exitY=0.491;exitDx=0;exitDy=0;exitPerimeter=0;entryX=1;entryY=0.5;entryDx=0;entryDy=0;strokeColor=#C01C28;" edge="1" parent="1">
          <mxGeometry width="50" height="50" relative="1" as="geometry">
            <mxPoint x="478.68000000000006" y="365.6400000000001" as="sourcePoint" />
            <mxPoint x="400.0000000000016" y="366" as="targetPoint" />
          </mxGeometry>
        </mxCell>
        <mxCell id="Xr_a90Z806RpOpPXDUMy-13" value="" style="endArrow=classic;html=1;rounded=0;exitX=-0.033;exitY=0.491;exitDx=0;exitDy=0;exitPerimeter=0;entryX=1;entryY=0.5;entryDx=0;entryDy=0;strokeColor=#C01C28;" edge="1" parent="1">
          <mxGeometry width="50" height="50" relative="1" as="geometry">
            <mxPoint x="598.34" y="366.0000000000001" as="sourcePoint" />
            <mxPoint x="519.6600000000016" y="366.36" as="targetPoint" />
          </mxGeometry>
        </mxCell>
        <mxCell id="Xr_a90Z806RpOpPXDUMy-14" value="&lt;div&gt;&lt;font color=&quot;#cc0000&quot;&gt;`frac{\partialL}{\partialy}`&lt;/font&gt;&lt;/div&gt;" style="text;html=1;strokeColor=none;fillColor=none;align=center;verticalAlign=middle;whiteSpace=wrap;rounded=0;" vertex="1" parent="1">
          <mxGeometry x="410" y="380" width="60" height="30" as="geometry" />
        </mxCell>
        <mxCell id="Xr_a90Z806RpOpPXDUMy-17" value="&lt;div&gt;&lt;font color=&quot;#cc0000&quot;&gt;`frac{\partialL}{\partialy}`&lt;/font&gt;&lt;/div&gt;" style="text;html=1;strokeColor=none;fillColor=none;align=center;verticalAlign=middle;whiteSpace=wrap;rounded=0;" vertex="1" parent="1">
          <mxGeometry x="530" y="380" width="60" height="30" as="geometry" />
        </mxCell>
        <mxCell id="Xr_a90Z806RpOpPXDUMy-18" value="&lt;div&gt;`x&amp;gt;0`&lt;/div&gt;" style="text;html=1;strokeColor=default;fillColor=none;align=center;verticalAlign=middle;whiteSpace=wrap;rounded=0;" vertex="1" parent="1">
          <mxGeometry x="400" y="290" width="60" height="30" as="geometry" />
        </mxCell>
        <mxCell id="Xr_a90Z806RpOpPXDUMy-19" value="&lt;div&gt;relu&lt;/div&gt;" style="ellipse;whiteSpace=wrap;html=1;" vertex="1" parent="1">
          <mxGeometry x="480" y="490" width="40" height="40" as="geometry" />
        </mxCell>
        <mxCell id="Xr_a90Z806RpOpPXDUMy-20" value="" style="endArrow=classic;html=1;rounded=0;entryX=0;entryY=0.5;entryDx=0;entryDy=0;exitX=1;exitY=0.5;exitDx=0;exitDy=0;" edge="1" parent="1">
          <mxGeometry width="50" height="50" relative="1" as="geometry">
            <mxPoint x="400" y="505" as="sourcePoint" />
            <mxPoint x="480" y="505" as="targetPoint" />
          </mxGeometry>
        </mxCell>
        <mxCell id="Xr_a90Z806RpOpPXDUMy-21" value="" style="endArrow=classic;html=1;rounded=0;entryX=0;entryY=0.5;entryDx=0;entryDy=0;exitX=1;exitY=0.5;exitDx=0;exitDy=0;" edge="1" parent="1">
          <mxGeometry width="50" height="50" relative="1" as="geometry">
            <mxPoint x="520" y="505" as="sourcePoint" />
            <mxPoint x="600" y="505" as="targetPoint" />
          </mxGeometry>
        </mxCell>
        <mxCell id="Xr_a90Z806RpOpPXDUMy-22" value="&lt;div&gt;`x`&lt;/div&gt;" style="text;html=1;strokeColor=none;fillColor=none;align=center;verticalAlign=middle;whiteSpace=wrap;rounded=0;" vertex="1" parent="1">
          <mxGeometry x="410" y="480" width="60" height="30" as="geometry" />
        </mxCell>
        <mxCell id="Xr_a90Z806RpOpPXDUMy-23" value="&lt;div&gt;`y`&lt;/div&gt;" style="text;html=1;strokeColor=none;fillColor=none;align=center;verticalAlign=middle;whiteSpace=wrap;rounded=0;" vertex="1" parent="1">
          <mxGeometry x="530" y="480" width="60" height="30" as="geometry" />
        </mxCell>
        <mxCell id="Xr_a90Z806RpOpPXDUMy-24" value="" style="endArrow=classic;html=1;rounded=0;exitX=-0.033;exitY=0.491;exitDx=0;exitDy=0;exitPerimeter=0;entryX=1;entryY=0.5;entryDx=0;entryDy=0;strokeColor=#C01C28;" edge="1" parent="1">
          <mxGeometry width="50" height="50" relative="1" as="geometry">
            <mxPoint x="478.68000000000006" y="515.6400000000001" as="sourcePoint" />
            <mxPoint x="400.0000000000016" y="516" as="targetPoint" />
          </mxGeometry>
        </mxCell>
        <mxCell id="Xr_a90Z806RpOpPXDUMy-25" value="" style="endArrow=classic;html=1;rounded=0;exitX=-0.033;exitY=0.491;exitDx=0;exitDy=0;exitPerimeter=0;entryX=1;entryY=0.5;entryDx=0;entryDy=0;strokeColor=#C01C28;" edge="1" parent="1">
          <mxGeometry width="50" height="50" relative="1" as="geometry">
            <mxPoint x="598.34" y="516.0000000000001" as="sourcePoint" />
            <mxPoint x="519.6600000000016" y="516.36" as="targetPoint" />
          </mxGeometry>
        </mxCell>
        <mxCell id="Xr_a90Z806RpOpPXDUMy-26" value="&lt;div&gt;&lt;font color=&quot;#cc0000&quot;&gt;`0`&lt;/font&gt;&lt;/div&gt;" style="text;html=1;strokeColor=none;fillColor=none;align=center;verticalAlign=middle;whiteSpace=wrap;rounded=0;" vertex="1" parent="1">
          <mxGeometry x="410" y="530" width="60" height="30" as="geometry" />
        </mxCell>
        <mxCell id="Xr_a90Z806RpOpPXDUMy-27" value="&lt;div&gt;&lt;font color=&quot;#cc0000&quot;&gt;`frac{\partialL}{\partialy}`&lt;/font&gt;&lt;/div&gt;" style="text;html=1;strokeColor=none;fillColor=none;align=center;verticalAlign=middle;whiteSpace=wrap;rounded=0;" vertex="1" parent="1">
          <mxGeometry x="530" y="530" width="60" height="30" as="geometry" />
        </mxCell>
        <mxCell id="Xr_a90Z806RpOpPXDUMy-28" value="&lt;div&gt;`x\leq0`&lt;/div&gt;" style="text;html=1;strokeColor=default;fillColor=none;align=center;verticalAlign=middle;whiteSpace=wrap;rounded=0;" vertex="1" parent="1">
          <mxGeometry x="400" y="440" width="60" height="30" as="geometry" />
        </mxCell>
      </root>
    </mxGraphModel>
  </diagram>
</mxfile>
